<svg width="48" height="48" viewBox="0 0 48 48" fill="none" xmlns="http://www.w3.org/2000/svg">
<path fill-rule="evenodd" clip-rule="evenodd" d="M37.8819 3.79672C34.9295 3.0174 31.6569 3.79254 29.3429 6.12118C26.8875 8.59216 26.1676 12.1522 27.1903 15.2633C27.2783 15.5313 27.2086 15.8261 27.0098 16.0262L13.3189 29.8039C13.1319 29.9921 12.8595 30.0675 12.6024 30.0022C10.1896 29.3899 7.52915 30.0335 5.6423 31.9323C2.7859 34.8069 2.7859 39.4693 5.6423 42.3439C8.49608 45.2157 13.121 45.2157 15.9748 42.3439C17.8614 40.4453 18.5035 37.7656 17.8951 35.3329C17.8314 35.0782 17.9056 34.8086 18.0907 34.6223L31.653 20.974C31.8623 20.7633 32.1763 20.696 32.4536 20.8024C35.6237 22.0184 39.3453 21.3406 41.8991 18.7705C44.2102 16.4448 44.9837 13.154 44.2143 10.1818L37.5453 16.8931C37.4045 17.0348 37.213 17.1145 37.0133 17.1145C36.8136 17.1145 36.6221 17.0348 36.4813 16.8931L31.2 11.5783C30.9093 11.2858 30.9093 10.8135 31.2 10.521L37.8819 3.79672ZM28.2789 5.06388C31.3252 1.99824 35.7945 1.23639 39.5478 2.77696C39.7796 2.87208 39.9485 3.0766 39.9982 3.32213C40.0478 3.56765 39.9716 3.82175 39.7951 3.99944L32.7893 11.0497L37.0133 15.3004L44.0103 8.25901C44.188 8.08024 44.4435 8.00264 44.6906 8.05246C44.9376 8.10228 45.1431 8.27284 45.2376 8.50649C46.7622 12.2766 46.0065 16.7651 42.9632 19.8278C40.1008 22.7083 35.9821 23.5549 32.3817 22.3687L19.4444 35.3881C20.0038 38.1934 19.2037 41.2225 17.0388 43.4011C13.5985 46.8633 8.01862 46.8633 4.57829 43.4011C1.14057 39.9416 1.14057 34.3346 4.57829 30.875C6.74312 28.6965 9.75572 27.889 12.5477 28.4519L25.6299 15.2867C24.6452 11.7711 25.5262 7.83411 28.2789 5.06388ZM13.1952 34.7303C11.8765 33.4033 9.74057 33.4033 8.42193 34.7303C7.10069 36.0599 7.10069 38.2176 8.42193 39.5473C9.74057 40.8743 11.8765 40.8743 13.1952 39.5473C14.5164 38.2176 14.5164 36.0599 13.1952 34.7303ZM7.35792 33.673C9.2631 31.7557 12.354 31.7557 14.2592 33.673C16.1617 35.5876 16.1617 38.6899 14.2592 40.6046C12.354 42.5218 9.2631 42.5218 7.35792 40.6046C5.45535 38.6899 5.45536 35.5876 7.35792 33.673Z" fill="black"/>
</svg>
